<?xml version="1.0" encoding="iso-8859-1"?>
<!-- Generator: Adobe Illustrator 16.0.0, SVG Export Plug-In . SVG Version: 6.00 Build 0)  -->
<!DOCTYPE svg PUBLIC "-//W3C//DTD SVG 1.1//EN" "http://www.w3.org/Graphics/SVG/1.1/DTD/svg11.dtd">
<svg version="1.1" id="Capa_1" xmlns="http://www.w3.org/2000/svg" xmlns:xlink="http://www.w3.org/1999/xlink" x="0px" y="0px"
	 width="581.4px" height="581.4px" viewBox="0 0 581.4 581.4" style="enable-background:new 0 0 581.4 581.4;" xml:space="preserve"
	>
<g>
	<g id="Layer_1_14_">
		<g>
			<path d="M385.051,201.451H56.1c-30.6,0-56.1,24.225-56.1,54.825V428.4c0,30.6,25.5,56.1,56.1,56.1h25.5v2.551
				c0,7.65,1.275,15.299,5.1,21.674c8.925,19.125,28.05,33.15,51,33.15h165.749c22.951,0,42.076-14.025,49.727-33.15
				c2.549-6.375,5.1-14.023,5.1-21.674V484.5h26.775c30.6,0,56.1-24.225,56.1-54.824V257.55
				C439.875,226.951,414.375,201.451,385.051,201.451z M257.55,506.176c0,7.65-5.1,12.75-12.75,12.75h-51
				c-7.65,0-14.025-6.375-14.025-12.75V484.5c0-7.65,6.375-14.025,14.025-14.025h51c7.65,0,12.75,6.375,12.75,14.025V506.176z
				 M404.176,418.201c0,16.574-12.75,29.324-29.326,29.324H65.025c-16.575,0-29.325-12.75-29.325-29.324V267.75
				c0-16.575,12.75-30.6,29.325-30.6H374.85c16.576,0,29.326,14.025,29.326,30.6V418.201L404.176,418.201z"/>
			<path d="M419.475,39.525c-82.875,0-151.725,63.75-160.649,144.075h38.249C306,123.675,357,77.775,419.475,77.775
				c68.85,0,123.676,54.825,123.676,123.675c0,54.825-35.701,100.725-85.426,117.299v39.525c71.4-17.85,123.676-81.6,123.676-158.1
				C581.4,112.201,508.725,39.525,419.475,39.525z"/>
			<path d="M456.449,242.25c1.275,5.1,1.275,10.2,1.275,15.3v29.325c31.875-15.3,53.551-47.175,53.551-84.15
				c0-51-42.076-93.075-93.076-93.075c-44.625,0-82.875,31.875-91.799,75.225h39.525c7.648-21.675,28.049-36.975,52.273-36.975
				c30.602,0,54.826,24.225,54.826,54.825C474.301,218.025,467.926,232.05,456.449,242.25z"/>
		</g>
	</g>
</g>
<g>
</g>
<g>
</g>
<g>
</g>
<g>
</g>
<g>
</g>
<g>
</g>
<g>
</g>
<g>
</g>
<g>
</g>
<g>
</g>
<g>
</g>
<g>
</g>
<g>
</g>
<g>
</g>
<g>
</g>
</svg>
